<svg id="Icons" height="512" viewBox="0 0 74 74" width="512" xmlns="http://www.w3.org/2000/svg"><path d="m3 57a1 1 0 0 1 -1-1v-38a1 1 0 0 1 1.549-.836l28.972 19a1 1 0 0 1 0 1.673l-28.972 19a1 1 0 0 1 -.549.163zm1-37.148v34.3l26.148-17.152z"/><path d="m71 57a1 1 0 0 1 -.549-.164l-28.972-19a1 1 0 0 1 0-1.673l28.972-19a1 1 0 0 1 1.549.837v38a1 1 0 0 1 -1 1zm-27.148-20 26.148 17.148v-34.3z"/><path d="m36 4h2v3.5h-2z"/><path d="m38 59.944h-2v-6.555h2zm0-13.111h-2v-6.555h2zm0-13.111h-2v-6.555h2zm0-13.111h-2v-6.555h2z"/><path d="m36 66.5h2v3.5h-2z"/></svg>