<svg id="Icons" height="512" viewBox="0 0 74 74" width="512" xmlns="http://www.w3.org/2000/svg"><path d="m37 30.971a1 1 0 0 1 -.817-.424l-19-26.971a1 1 0 0 1 .817-1.576h38a1 1 0 0 1 .817 1.576l-19 26.971a1 1 0 0 1 -.817.424zm-17.072-26.971 17.072 24.235 17.072-24.235z"/><path d="m56 72h-38a1 1 0 0 1 -.817-1.576l19-26.971a1.036 1.036 0 0 1 1.635 0l19 26.971a1 1 0 0 1 -.818 1.576zm-36.072-2h34.144l-17.072-24.235z"/><path d="m66.5 36h3.5v2h-3.5z"/><path d="m59.944 38h-6.555v-2h6.556zm-13.111 0h-6.556v-2h6.556zm-13.111 0h-6.555v-2h6.555zm-13.11 0h-6.556v-2h6.556z"/><path d="m4 36h3.5v2h-3.5z"/></svg>