<?xml version="1.0" encoding="iso-8859-1"?>
<!-- Generator: Adobe Illustrator 19.0.0, SVG Export Plug-In . SVG Version: 6.00 Build 0)  -->
<svg version="1.1" id="Capa_1" xmlns="http://www.w3.org/2000/svg" xmlns:xlink="http://www.w3.org/1999/xlink" x="0px" y="0px"
	 viewBox="0 0 512 512" style="enable-background:new 0 0 512 512;" xml:space="preserve">
<g>
	<g>
		<path d="M454.154,0H139.077c-8.157,0-14.769,6.613-14.769,14.769v64c0,8.157,6.613,14.769,14.769,14.769h81.96l-36.103,324.923
			H57.846c-8.157,0-14.769,6.613-14.769,14.769v64c0,8.157,6.613,14.769,14.769,14.769h315.077c8.157,0,14.769-6.613,14.769-14.769
			v-64c0-8.157-6.613-14.769-14.769-14.769h-79.499l36.103-324.923h124.627c8.157,0,14.769-6.613,14.769-14.769v-64
			C468.923,6.613,462.31,0,454.154,0z M439.385,64H316.308c-7.525,0-13.848,5.659-14.679,13.138l-39.385,354.462
			c-0.464,4.176,0.872,8.35,3.674,11.482c2.801,3.13,6.804,4.919,11.005,4.919h81.231v34.462H72.615V448h125.539
			c7.525,0,13.848-5.659,14.679-13.138l39.385-354.462c0.464-4.176-0.872-8.351-3.674-11.482C245.742,65.789,241.74,64,237.538,64
			h-83.692V29.538h285.539V64z"/>
	</g>
</g>
<g>
</g>
<g>
</g>
<g>
</g>
<g>
</g>
<g>
</g>
<g>
</g>
<g>
</g>
<g>
</g>
<g>
</g>
<g>
</g>
<g>
</g>
<g>
</g>
<g>
</g>
<g>
</g>
<g>
</g>
</svg>
