<?xml version="1.0" encoding="iso-8859-1"?>
<!-- Generator: Adobe Illustrator 16.0.0, SVG Export Plug-In . SVG Version: 6.00 Build 0)  -->
<!DOCTYPE svg PUBLIC "-//W3C//DTD SVG 1.1//EN" "http://www.w3.org/Graphics/SVG/1.1/DTD/svg11.dtd">
<svg version="1.1" id="Capa_1" xmlns="http://www.w3.org/2000/svg" xmlns:xlink="http://www.w3.org/1999/xlink" x="0px" y="0px"
	 width="28.496px" height="28.496px" viewBox="0 0 28.496 28.496" style="enable-background:new 0 0 28.496 28.496;"
	 xml:space="preserve">
<g>
	<g>
		<path d="M11.44,15.353c0-2.99-1.352-5.486-5.59-5.486c-2.314,0-4.056,0.624-4.94,1.118l0.728,2.548
			c0.832-0.52,2.21-0.962,3.51-0.962c1.95,0,2.314,0.962,2.314,1.639v0.183C2.964,14.365,0,15.952,0,19.253
			c0,2.028,1.534,3.9,4.108,3.9c1.508,0,2.808-0.547,3.64-1.562h0.078l0.234,1.274h3.562c-0.13-0.702-0.182-1.872-0.182-3.096
			V15.353z M7.592,18.239c0,0.232-0.026,0.468-0.078,0.676c-0.26,0.807-1.066,1.456-2.054,1.456c-0.884,0-1.56-0.494-1.56-1.508
			c0-1.534,1.612-2.028,3.692-2.003V18.239z"/>
		<path d="M23.062,5.343h-5.201l-5.355,17.524h4.108l1.247-4.498h5.019l1.353,4.498h4.264L23.062,5.343z M18.434,15.404l1.041-3.718
			c0.285-1.014,0.545-2.34,0.806-3.38h0.052c0.26,1.04,0.572,2.34,0.884,3.38l1.093,3.718H18.434z"/>
		<polygon points="8.025,6.584 1.999,6.584 1.999,6.833 1.999,7.461 1.999,7.709 8.025,7.709 8.025,8.95 12.442,7.146 8.025,5.343 
					"/>
	</g>
</g>
<g>
</g>
<g>
</g>
<g>
</g>
<g>
</g>
<g>
</g>
<g>
</g>
<g>
</g>
<g>
</g>
<g>
</g>
<g>
</g>
<g>
</g>
<g>
</g>
<g>
</g>
<g>
</g>
<g>
</g>
</svg>
